<svg width="16" height="16" viewBox="0 0 16 16" fill="none" xmlns="http://www.w3.org/2000/svg">
<g clip-path="url(#clip0_1_270)">
<path d="M6.93963 13.0581C5.88093 14.1559 4.15679 14.2572 2.97688 13.2908C2.27419 12.6824 1.91525 11.7676 2.0167 10.8437C2.10456 10.1625 2.42294 9.53187 2.91887 9.05669L4.83658 7.13767C5.22702 6.7471 5.22702 6.11398 4.83658 5.72341C4.446 5.33296 3.81288 5.33296 3.42231 5.72341L1.5453 7.6011C0.689705 8.42617 0.150136 9.52484 0.0203301 10.7063C-0.222122 13.3674 1.73853 15.7212 4.39959 15.9636C5.82864 16.0938 7.24178 15.5829 8.25718 14.569L10.2629 12.564C10.6534 12.1734 10.6534 11.5403 10.2629 11.1497C9.87233 10.7593 9.23921 10.7593 8.84864 11.1497L6.93963 13.0581Z" fill="#007FFF"/>
<path d="M14.1077 0.978197C12.1165 -0.484765 9.35142 -0.255409 7.62847 1.51564L5.74077 3.404C5.35032 3.79457 5.35032 4.42769 5.74077 4.81826C6.13135 5.20871 6.76446 5.20871 7.15504 4.81826L9.07274 2.90256C10.1083 1.83151 11.7838 1.71087 12.9621 2.62251C14.1749 3.617 14.352 5.40637 13.3575 6.61919C13.2993 6.69017 13.2376 6.75828 13.1728 6.82329L11.1671 8.82901C10.7767 9.21959 10.7767 9.85271 11.1671 10.2433C11.5577 10.6337 12.1908 10.6337 12.5814 10.2433L14.5871 8.23756C16.4753 6.34327 16.4705 3.27691 14.5762 1.38865C14.429 1.24193 14.2725 1.10485 14.1077 0.978197Z" fill="#007FFF"/>
<path d="M5.74071 8.8306L8.84832 5.72298C9.23893 5.33237 9.8722 5.33237 10.2628 5.72298C10.6534 6.11358 10.6534 6.74686 10.2628 7.13746L7.15519 10.2451C6.76459 10.6357 6.13131 10.6357 5.74071 10.2451C5.3501 9.85448 5.3501 9.2212 5.74071 8.8306Z" fill="#007FFF"/>
</g>
<defs>
<clipPath id="clip0_1_270">
<rect width="16" height="16" fill="white"/>
</clipPath>
</defs>
</svg>
