<svg width="19" height="20" viewBox="0 0 19 20" fill="none" xmlns="http://www.w3.org/2000/svg">
<mask id="mask0_1_248" style="mask-type:alpha" maskUnits="userSpaceOnUse" x="0" y="0" width="19" height="20">
<rect y="0.121643" width="19" height="19" fill="#D9D9D9"/>
</mask>
<g mask="url(#mask0_1_248)">
<path d="M4.88856 17.6977C4.36036 17.6977 3.91513 17.5162 3.55286 17.1533C3.18996 16.7904 3.00851 16.3452 3.00851 15.8176V3.42775C3.00851 2.90018 3.18996 2.45495 3.55286 2.09205C3.91513 1.72915 4.36036 1.5477 4.88856 1.5477H14.1112C14.6394 1.5477 15.0846 1.72915 15.4469 2.09205C15.8098 2.45495 15.9912 2.90018 15.9912 3.42775V15.8176C15.9912 16.3452 15.8098 16.7904 15.4469 17.1533C15.0846 17.5162 14.6394 17.6977 14.1112 17.6977H4.88856ZM9.26236 8.55395L10.5287 7.80155L11.7761 8.55395C11.9477 8.65972 12.1158 8.66637 12.2805 8.5739C12.4458 8.48143 12.5285 8.3364 12.5285 8.1388V3.42775H8.52991V8.1388C8.52991 8.3364 8.61256 8.48143 8.77786 8.5739C8.94253 8.66637 9.10403 8.65972 9.26236 8.55395Z" fill="#808080"/>
</g>
</svg>
