<svg width="19" height="20" viewBox="0 0 19 20" fill="none" xmlns="http://www.w3.org/2000/svg">
<mask id="mask0_1_253" style="mask-type:alpha" maskUnits="userSpaceOnUse" x="0" y="0" width="19" height="20">
<rect y="0.621643" width="19" height="19" fill="#D9D9D9"/>
</mask>
<g mask="url(#mask0_1_253)">
<path d="M6.98775 18.4546C6.36772 18.4546 5.81038 18.2994 5.31575 17.9891C4.82048 17.6794 4.44112 17.2541 4.17765 16.7133C3.95345 17.0033 3.67288 17.2275 3.33595 17.3859C2.99965 17.5442 2.65353 17.6234 2.2976 17.6234C1.59777 17.6234 1.00718 17.3859 0.52585 16.9109C0.0445168 16.4359 -0.19615 15.8551 -0.19615 15.1686C-0.19615 14.5751 -0.00171651 14.0377 0.38715 13.5564C0.77665 13.0744 1.27477 12.7939 1.8815 12.7147C1.70987 12.4506 1.57782 12.177 1.48535 11.8939C1.39352 11.6102 1.3476 11.31 1.3476 10.9933C1.3476 10.3733 1.52557 9.78934 1.8815 9.24151C2.23807 8.69367 2.746 8.28802 3.4053 8.02456C3.4585 8.28802 3.55413 8.56511 3.6922 8.85581C3.8309 9.14587 3.96612 9.40966 4.09785 9.64716C3.79448 9.79219 3.55698 9.98346 3.38535 10.221C3.21435 10.4585 3.12885 10.7226 3.12885 11.0133C3.12885 11.7125 3.43538 12.1377 4.04845 12.2891C4.66215 12.4411 5.2198 12.57 5.7214 12.6758L6.13655 13.4272C6.00482 13.8097 5.8829 14.1495 5.7708 14.4466C5.6587 14.7436 5.60265 15.0175 5.60265 15.2683C5.60265 15.6508 5.73438 15.9805 5.99785 16.2573C6.26195 16.5347 6.58527 16.6734 6.9678 16.6734C7.36363 16.6734 7.70342 16.5217 7.98715 16.2183C8.27088 15.9149 8.51187 15.5422 8.7101 15.1002C8.9077 14.6581 9.0692 14.1764 9.1946 13.6552C9.32 13.134 9.42228 12.6621 9.50145 12.2397C9.54072 11.9889 9.66612 11.791 9.87765 11.646C10.0886 11.5009 10.3061 11.4613 10.5303 11.5272C10.7944 11.6064 10.986 11.7647 11.1051 12.0022C11.2235 12.2397 11.2498 12.4972 11.1839 12.7746C11.0648 13.368 10.9097 14.0013 10.7184 14.6746C10.5271 15.3472 10.2732 15.964 9.9565 16.5252C9.63983 17.0857 9.24083 17.5474 8.7595 17.9103C8.27753 18.2732 7.68695 18.4546 6.98775 18.4546ZM8.41275 12.0811C8.22782 12.266 8.00013 12.3518 7.7297 12.3385C7.45927 12.3252 7.22525 12.2264 7.02765 12.0421C6.11692 11.2105 5.36135 10.4189 4.76095 9.66711C4.16055 8.91471 3.86035 8.09676 3.86035 7.21326C3.86035 6.32912 4.16403 5.58337 4.7714 4.97601C5.37813 4.36927 6.12357 4.06591 7.0077 4.06591H7.18535C7.13278 3.92087 7.09352 3.78249 7.06755 3.65076C7.04095 3.51839 7.02765 3.37304 7.02765 3.21471C7.02765 2.52881 7.26832 1.94487 7.74965 1.46291C8.23162 0.981572 8.81555 0.740906 9.50145 0.740906C10.1874 0.740906 10.7713 0.981572 11.2533 1.46291C11.7346 1.94487 11.9753 2.52881 11.9753 3.21471C11.9753 3.37304 11.962 3.52156 11.9354 3.66026C11.9094 3.79896 11.8635 3.93417 11.7976 4.06591H11.9952C12.8135 4.06591 13.5127 4.33982 14.0928 4.88766C14.6736 5.43486 15.0102 6.10429 15.1027 6.89596C14.8386 6.85669 14.5415 6.83357 14.2116 6.82661C13.8822 6.82027 13.5789 6.83674 13.3015 6.87601C13.2223 6.57264 13.0671 6.32532 12.836 6.13406C12.6054 5.94279 12.3252 5.84716 11.9952 5.84716C11.5468 5.84716 11.1839 5.99884 10.9065 6.30221C10.6297 6.60557 10.2934 6.98177 9.8976 7.43081H9.08535C8.67685 6.95581 8.3339 6.57296 8.0565 6.28226C7.77973 5.99219 7.43013 5.84716 7.0077 5.84716C6.61187 5.84716 6.28538 5.97572 6.02825 6.23286C5.77112 6.48999 5.64255 6.81679 5.64255 7.21326C5.64255 7.75412 5.89652 8.31811 6.40445 8.90521C6.91238 9.49231 7.54888 10.1288 8.31395 10.8147C8.51155 10.9863 8.62365 11.1941 8.65025 11.4379C8.67685 11.6824 8.59768 11.8968 8.41275 12.0811ZM11.9952 18.4546C11.6785 18.4546 11.3685 18.4084 11.0652 18.3159C10.7618 18.2234 10.4714 18.0851 10.194 17.9008C10.3656 17.6892 10.5338 17.4416 10.6985 17.1579C10.8638 16.8741 11.0056 16.6135 11.1241 16.376C11.2697 16.4685 11.4182 16.541 11.5696 16.5936C11.7216 16.6468 11.8701 16.6734 12.0152 16.6734C12.411 16.6734 12.7441 16.5315 13.0146 16.2478C13.285 15.964 13.4202 15.6309 13.4202 15.2484C13.4202 14.9843 13.3642 14.7037 13.2521 14.4067C13.14 14.1103 13.0177 13.7708 12.8854 13.3883L13.3015 12.6558C13.8157 12.5633 14.3765 12.4411 14.9839 12.2891C15.5906 12.1377 15.894 11.7058 15.894 10.9933C15.894 10.4917 15.7094 10.1253 15.3402 9.89416C14.9703 9.66362 14.5612 9.54836 14.1128 9.54836C13.6511 9.54836 13.1298 9.62404 12.5491 9.77541C11.9689 9.92741 11.3356 10.1155 10.6491 10.3397C10.3983 10.4322 10.1576 10.4255 9.92705 10.3198C9.69588 10.2146 9.54072 10.0367 9.46155 9.78586C9.39568 9.54836 9.43527 9.31751 9.5803 9.09331C9.72533 8.86847 9.92325 8.71014 10.1741 8.61831C10.9265 8.38081 11.6291 8.18289 12.2821 8.02456C12.9351 7.86622 13.5519 7.78706 14.1327 7.78706C15.0561 7.78706 15.8741 8.06731 16.5866 8.62781C17.2991 9.18831 17.6553 9.97681 17.6553 10.9933C17.6553 11.31 17.6094 11.6102 17.5176 11.8939C17.4251 12.177 17.293 12.4506 17.1214 12.7147C17.7281 12.7939 18.2263 13.071 18.6158 13.546C19.0046 14.021 19.1991 14.5618 19.1991 15.1686C19.1991 15.8551 18.9584 16.4359 18.4771 16.9109C17.9957 17.3859 17.4118 17.6234 16.7253 17.6234C16.356 17.6234 16.0033 17.5442 15.667 17.3859C15.33 17.2275 15.0495 17.0033 14.8253 16.7133C14.5352 17.2541 14.146 17.6794 13.6577 17.9891C13.1694 18.2994 12.6152 18.4546 11.9952 18.4546Z" fill="#808080"/>
</g>
</svg>
