<svg width="19" height="16" viewBox="0 0 19 16" fill="none" xmlns="http://www.w3.org/2000/svg">
<path d="M5.22698 0.091217C6.05792 0.091217 6.84641 0.26285 7.59248 0.606117C8.33791 0.94875 8.97442 1.43673 9.50198 2.07007C10.0295 1.43673 10.666 0.94875 11.4115 0.606117C12.1575 0.26285 12.946 0.091217 13.777 0.091217C15.2286 0.091217 16.4623 0.59915 17.4782 1.61502C18.494 2.63088 19.002 3.86462 19.002 5.31622C19.002 5.76462 18.9459 6.21998 18.8338 6.68232C18.7217 7.14402 18.5599 7.60572 18.3484 8.06742C18.1641 7.77735 17.9367 7.53637 17.6663 7.34447C17.3958 7.1532 17.1023 7.01165 16.7856 6.91982C16.9041 6.64242 16.9899 6.37167 17.0431 6.10757C17.0956 5.8441 17.1219 5.58032 17.1219 5.31622C17.1219 4.39282 16.7954 3.60432 16.1425 2.95072C15.4889 2.29775 14.7004 1.97127 13.777 1.97127C13.0246 1.97127 12.3121 2.19578 11.6395 2.64482C10.9669 3.09322 10.2544 3.78577 9.50198 4.72247C8.74958 3.79907 8.03708 3.10968 7.36448 2.65432C6.69188 2.19895 5.97938 1.97127 5.22698 1.97127C4.30358 1.97127 3.51508 2.29775 2.86148 2.95072C2.20851 3.60432 1.88203 4.39282 1.88203 5.31622C1.88203 5.58032 1.90831 5.8441 1.96088 6.10757C2.01408 6.37167 2.0999 6.64242 2.21833 6.91982C1.91496 7.02495 1.6249 7.17663 1.34813 7.37487C1.07073 7.57247 0.839881 7.80997 0.655581 8.08737C0.444048 7.62567 0.282231 7.16048 0.170131 6.69182C0.058031 6.22315 0.00198099 5.76462 0.00198099 5.31622C0.00198099 3.86462 0.509914 2.63088 1.52578 1.61502C2.54165 0.59915 3.77538 0.091217 5.22698 0.091217ZM0.873131 15.5088C0.622331 15.5088 0.401298 15.4166 0.210031 15.2323C0.0187643 15.0474 -0.076869 14.8295 -0.076869 14.5787V14.1037C-0.076869 13.497 0.233148 12.9989 0.853181 12.6094C1.47321 12.2199 2.27153 12.0251 3.24813 12.0251C3.36656 12.0251 3.48531 12.0286 3.60438 12.0356C3.72281 12.0419 3.84822 12.0584 3.98058 12.085C3.75575 12.3883 3.58728 12.7148 3.47518 13.0644C3.36308 13.414 3.30703 13.7801 3.30703 14.1626V15.5088H0.873131ZM5.62313 15.5088C5.37233 15.5088 5.1513 15.4166 4.96003 15.2323C4.76876 15.0474 4.67313 14.8295 4.67313 14.5787V14.1626C4.67313 13.2924 5.11836 12.5799 6.00883 12.0251C6.8993 11.4716 8.06368 11.1948 9.50198 11.1948C10.9536 11.1948 12.1214 11.4716 13.0056 12.0251C13.8891 12.5799 14.3308 13.2924 14.3308 14.1626V14.5787C14.3308 14.8295 14.2352 15.0474 14.0439 15.2323C13.8527 15.4166 13.6316 15.5088 13.3808 15.5088H5.62313ZM15.6969 15.5088V14.1626C15.6969 13.7674 15.6409 13.3947 15.5288 13.0445C15.4167 12.6949 15.2482 12.375 15.0234 12.085C15.1557 12.0584 15.2811 12.0419 15.3996 12.0356C15.5186 12.0286 15.6374 12.0251 15.7558 12.0251C16.7324 12.0251 17.5307 12.2199 18.1508 12.6094C18.7708 12.9989 19.0808 13.497 19.0808 14.1037V14.5787C19.0808 14.8295 18.9852 15.0474 18.7939 15.2323C18.6027 15.4166 18.3816 15.5088 18.1308 15.5088H15.6969ZM3.20823 11.4912C2.73323 11.4912 2.33075 11.3262 2.00078 10.9963C1.67081 10.6663 1.50583 10.2638 1.50583 9.78882C1.50583 9.31382 1.67081 8.91165 2.00078 8.58232C2.33075 8.25235 2.73323 8.08737 3.20823 8.08737C3.68323 8.08737 4.08571 8.25235 4.41568 8.58232C4.74565 8.91165 4.91063 9.31382 4.91063 9.78882C4.91063 10.2638 4.74565 10.6663 4.41568 10.9963C4.08571 11.3262 3.68323 11.4912 3.20823 11.4912ZM15.7957 11.4912C15.3207 11.4912 14.9182 11.3262 14.5883 10.9963C14.2583 10.6663 14.0933 10.2638 14.0933 9.78882C14.0933 9.31382 14.2583 8.91165 14.5883 8.58232C14.9182 8.25235 15.3207 8.08737 15.7957 8.08737C16.2707 8.08737 16.6732 8.25235 17.0032 8.58232C17.3331 8.91165 17.4981 9.31382 17.4981 9.78882C17.4981 10.2638 17.3331 10.6663 17.0032 10.9963C16.6732 11.3262 16.2707 11.4912 15.7957 11.4912ZM9.50198 10.6201C8.81608 10.6201 8.23563 10.3826 7.76063 9.90757C7.28563 9.43257 7.04813 8.85212 7.04813 8.16622C7.04813 7.48032 7.28563 6.89987 7.76063 6.42487C8.23563 5.94987 8.81608 5.71237 9.50198 5.71237C10.1879 5.71237 10.7683 5.94987 11.2433 6.42487C11.7183 6.89987 11.9558 7.48032 11.9558 8.16622C11.9558 8.85212 11.7183 9.43257 11.2433 9.90757C10.7683 10.3826 10.1879 10.6201 9.50198 10.6201Z" fill="#808080"/>
</svg>
