<svg width="19" height="20" viewBox="0 0 19 20" fill="none" xmlns="http://www.w3.org/2000/svg">
<mask id="mask0_1_258" style="mask-type:alpha" maskUnits="userSpaceOnUse" x="0" y="0" width="19" height="20">
<rect y="0.121643" width="19" height="19" fill="#D9D9D9"/>
</mask>
<g mask="url(#mask0_1_258)">
<path d="M1.545 16.2724C1.2942 16.2724 1.07634 16.1767 0.891405 15.9855C0.707105 15.7942 0.614955 15.5732 0.614955 15.3224V13.0661C0.614955 12.5911 0.783105 12.1855 1.1194 11.8492C1.4557 11.5122 1.86135 11.3438 2.33635 11.3438H4.9688C5.2063 11.3438 5.43399 11.4001 5.65185 11.5129C5.86972 11.625 6.05117 11.7931 6.1962 12.0173C6.56544 12.5449 7.04044 12.9603 7.6212 13.2637C8.20197 13.5671 8.82865 13.7188 9.50125 13.7188C10.1479 13.7188 10.7648 13.5706 11.3519 13.2742C11.939 12.9771 12.4304 12.5582 12.8263 12.0173C12.9713 11.8064 13.1493 11.6414 13.3602 11.5224C13.5717 11.4033 13.7962 11.3438 14.0337 11.3438H16.6662C17.1412 11.3438 17.55 11.5122 17.8926 11.8492C18.2359 12.1855 18.4075 12.5911 18.4075 13.0661V15.3224C18.4075 15.5732 18.3119 15.7942 18.1206 15.9855C17.9293 16.1767 17.7083 16.2724 17.4575 16.2724H13.4989C13.2481 16.2724 13.0305 16.1767 12.8462 15.9855C12.6613 15.7942 12.5688 15.5732 12.5688 15.3224V14.6099C12.1071 14.8873 11.6191 15.1051 11.1049 15.2635C10.59 15.4218 10.0554 15.501 9.50125 15.501C8.96039 15.501 8.4325 15.4218 7.9176 15.2635C7.40334 15.1051 6.91535 14.8873 6.45365 14.6099V15.3224C6.45365 15.5732 6.35802 15.7942 6.16675 15.9855C5.97549 16.1767 5.75445 16.2724 5.50365 16.2724H1.545ZM9.50125 12.7498C9.01295 12.7498 8.55442 12.6408 8.12565 12.423C7.69689 12.2051 7.34412 11.8916 7.06735 11.4825C6.82922 11.1398 6.52237 10.8694 6.1468 10.6712C5.7706 10.4736 5.36495 10.3748 4.92985 10.3748C5.27249 9.88646 5.91564 9.49696 6.8593 9.20626C7.80234 8.91619 8.68964 8.77116 9.5212 8.77116C10.3388 8.77116 11.2227 8.91619 12.1727 9.20626C13.1227 9.49696 13.7626 9.88646 14.0926 10.3748C13.6442 10.3748 13.2386 10.4704 12.8757 10.6617C12.5128 10.8529 12.2059 11.1265 11.9551 11.4825C11.6783 11.8916 11.3221 12.2051 10.8864 12.423C10.4513 12.6408 9.98955 12.7498 9.50125 12.7498ZM3.2075 10.3938C2.5216 10.3938 1.94115 10.1563 1.46615 9.68126C0.991155 9.20626 0.753655 8.62581 0.753655 7.93991C0.753655 7.25401 0.991155 6.67008 1.46615 6.18811C1.94115 5.70678 2.5216 5.46611 3.2075 5.46611C3.8934 5.46611 4.47386 5.70678 4.94885 6.18811C5.42385 6.67008 5.66136 7.25401 5.66136 7.93991C5.66136 8.62581 5.42385 9.20626 4.94885 9.68126C4.47386 10.1563 3.8934 10.3938 3.2075 10.3938ZM15.795 10.3938C15.1091 10.3938 14.5287 10.1563 14.0537 9.68126C13.5787 9.20626 13.3412 8.62581 13.3412 7.93991C13.3412 7.25401 13.5787 6.67008 14.0537 6.18811C14.5287 5.70678 15.1091 5.46611 15.795 5.46611C16.4809 5.46611 17.0614 5.70678 17.5364 6.18811C18.0114 6.67008 18.2489 7.25401 18.2489 7.93991C18.2489 8.62581 18.0114 9.20626 17.5364 9.68126C17.0614 10.1563 16.4809 10.3938 15.795 10.3938ZM9.50125 7.91996C8.81535 7.91996 8.2349 7.67929 7.7599 7.19796C7.2849 6.71663 7.0474 6.13269 7.0474 5.44616C7.0474 4.76026 7.2849 4.17981 7.7599 3.70481C8.2349 3.22981 8.81535 2.99231 9.50125 2.99231C10.1872 2.99231 10.7676 3.23298 11.2426 3.71431C11.7176 4.19628 11.9551 4.77356 11.9551 5.44616C11.9551 6.13269 11.7176 6.71663 11.2426 7.19796C10.7676 7.67929 10.1872 7.91996 9.50125 7.91996Z" fill="#808080"/>
</g>
</svg>
